<?xml version="1.0" encoding="utf-8"?>
<!-- Generator: Adobe Illustrator 22.1.0, SVG Export Plug-In . SVG Version: 6.00 Build 0)  -->
<svg version="1.1" id="Livello_1" xmlns="http://www.w3.org/2000/svg" xmlns:xlink="http://www.w3.org/1999/xlink" x="0px" y="0px"
	 viewBox="0 0 400 200" style="enable-background:new 0 0 400 200;" xml:space="preserve">
<style type="text/css">
	.st0{fill:#F07F17;}
	.st1{fill:#282929;}
	.st2{fill:#B0B0AF;}
	.st3{fill:none;stroke:#7D7D7E;stroke-width:0.5;stroke-dasharray:1.982,1.982;}
</style>
<g>
	<path class="st0" d="M225.3,72c-17.4,0-31.6,14.1-31.6,31.5c0,17.4,14.2,31.5,31.6,31.5c17.4,0,31.6-14.1,31.6-31.5
		C256.8,86.1,242.7,72,225.3,72 M225.3,145.2c-23.1,0-41.8-18.7-41.8-41.7c0-23,18.8-41.7,41.8-41.7c23.1,0,41.8,18.7,41.8,41.7
		C267.1,126.5,248.3,145.2,225.3,145.2"/>
	<path class="st0" d="M142.7,72c-17.4,0-31.6,14.1-31.6,31.5c0,17.4,14.2,31.5,31.6,31.5c17.4,0,31.6-14.1,31.6-31.5
		C174.3,86.1,160.1,72,142.7,72 M142.7,145.2c-23.1,0-41.8-18.7-41.8-41.7c0-23,18.8-41.7,41.8-41.7c23.1,0,41.8,18.7,41.8,41.7
		C184.5,126.5,165.8,145.2,142.7,145.2"/>
	<path class="st1" d="M334.4,145.6c-8.2,0-15.8-6.6-15.8-14.7V76.1c0-2.1-0.6-3.7-2.6-3.7c-2,0-3.1,1.6-3.1,3.7l0.2,54.8
		c0,8.1-6.9,14.7-15,14.7c-8.2,0-15-6.6-15-14.7V76.1c0-2.1-1.2-3.7-3.2-3.7c-2,0-3.4,1.6-3.4,3.6c0,16.4-4.7,29-4.9,29.5
		c-10.7,27.4-25.4,40.1-46.4,40.1c-26.6,0-39.9-21.9-46.4-40.3c-7.5-21.2-20.3-32.9-36.1-32.9c-16.2,0-27.7,10.5-36.1,33
		C97,131,83.4,138.8,81.1,140c-6.4,3.6-13.6,5.6-21,5.6c-23.3,0-42.2-18.9-42.2-42.1c0-23.2,18.9-42.1,42.1-42.1
		c7.5,0,14.5,1.9,21,5.6l-5.5,9.5c-4.8-2.8-10-4.2-15.5-4.2c-17.2,0-31.1,14-31.1,31.1c0,17.2,14,31.1,31.2,31.1
		c5.5,0,10.9-1.4,15.6-4.2l0.4-0.2c4-2,13.3-10.5,20.1-28.6c10.2-27,25.3-40.2,46.4-40.2c20.5,0,37.4,14.7,46.5,40.3
		c7.7,21.9,19.9,32.9,36.1,32.9c10.8,0,24.7-3.8,36.1-33.1c0-0.1,4.3-11.2,4.3-25.5c0-8,6.6-14.6,14.6-14.6c8,0,14.6,6.6,14.6,14.7
		v54.8c0,2,1.6,3.7,3.7,3.7c2.1,0,3.7-1.6,3.7-3.7V76.1c0-8.1,6-14.7,14-14.7c8,0,14,6.6,14,14.7v54.8c0,2,2.3,3.7,4.4,3.7
		c2,0,4-1.7,4-3.7l0.2-54.8c0-8.1,6.2-14.7,14.2-14.7c8,0,14.2,6.6,14.2,14.7v65.3H357V76.1c0-2.1-1.5-3.7-3.5-3.7s-3.5,1.6-3.5,3.7
		l-0.5,54.8C349.6,139,342.5,145.6,334.4,145.6"/>
	<path class="st2" d="M367.4,145.6"/>
	<path class="st3" d="M409.5,59.9"/>
</g>
</svg>
